<svg width="584" height="515" viewBox="0 0 584 515" fill="none" xmlns="http://www.w3.org/2000/svg">
<g clip-path="url(#clip0)">
<path d="M582.4 372.022C582.4 402.557 453.875 515 293.36 515C132.846 515 6.49362 395.172 6.49362 364.637C6.49362 334.102 132.846 404.408 293.36 404.408C453.875 404.408 582.4 341.459 582.4 372.022Z" fill="#3F3D56"/>
<path d="M583.995 359.834C583.995 360.24 583.995 360.646 583.995 361.059C583.642 373.749 578.238 386.37 568.376 395.282C557.915 404.724 543.886 409.693 529.483 412.866C527.231 413.361 524.968 413.809 522.711 414.242C521.558 414.449 520.411 414.655 519.269 414.848C487.206 420.353 454.47 421.406 421.886 422.418C387.802 423.519 353.687 424.606 319.566 425.171L312.799 425.274C261.029 426.003 209.28 425.391 157.699 421.551C141.692 420.367 125.526 418.798 109.655 416.155C107.392 415.793 105.136 415.396 102.888 414.965C81.8386 411.021 61.4158 404.972 42.8085 395.152C38.416 392.859 34.1194 390.263 29.937 387.375C18.2495 379.261 8.39329 369 3.51518 356.407C0.677532 349.023 -0.49079 340.734 0.147334 332.513C0.356041 329.524 0.74847 326.562 1.32082 323.656C2.78796 316.465 5.02553 309.581 7.96705 303.21C15.5657 286.404 26.9796 271.339 36.82 255.559C57.8269 221.927 71.5088 179.432 52.1226 144.96C46.5604 135.057 38.5197 126.379 33.9889 116.022C31.5651 110.427 30.053 104.236 29.5476 97.8399C29.3016 94.8992 29.2084 91.9401 29.2687 88.9829C29.4836 82.0773 30.1437 75.2078 31.242 68.4473C34.3994 47.3061 40.2984 24.5133 58.5163 11.3276C70.951 2.32605 86.8009 -0.467998 102.872 0.0619078C105.128 0.130727 107.383 0.268364 109.639 0.474821C115.801 1.00473 121.926 1.98196 127.841 3.22758C164.382 10.8596 198.108 26.805 232.155 41.2019C258.077 52.1579 284.925 62.405 312.783 67.2912C315.036 67.6834 317.288 68.0482 319.551 68.3648C326.081 69.3007 332.669 69.9201 339.31 70.1747C372.363 71.4134 410.924 62.054 432.873 37.7472C454.075 14.2524 493.837 12.3599 522.695 26.3921L523.126 26.6054C525.298 27.6881 527.403 28.8535 529.441 30.1014C550.706 43.177 564.951 65.5707 566.961 89.0036C567.212 91.914 567.272 94.8473 567.14 97.7711C567.143 97.8008 567.143 97.8309 567.14 97.8606C565.761 126.689 547.743 150.899 529.446 175.151C527.183 178.145 524.915 181.138 522.674 184.153C516.738 192.122 510.986 200.153 505.998 208.418C503.72 212.165 501.624 216.095 499.725 220.186C497.979 223.96 496.488 227.925 495.268 232.037C493.981 236.294 493.154 240.764 492.81 245.319C492.297 251.848 493.21 258.434 495.441 264.313L495.489 264.451C500.372 277.113 510.707 286.087 522.674 294.043C524.879 295.516 527.147 296.947 529.446 298.365C542.423 306.375 556.405 313.815 567.035 323.704C569.9 326.31 572.574 329.259 575.023 332.513C576.019 333.862 576.961 335.279 577.843 336.759C581.725 343.172 583.884 351.078 583.989 359.256C583.995 359.462 583.995 359.648 583.995 359.834Z" fill="#6C63FF"/>
<path d="M583.995 359.834C583.995 360.24 583.995 360.646 583.995 361.059C583.642 373.749 578.238 386.37 568.376 395.282C557.915 404.724 543.886 409.693 529.483 412.866C527.231 413.361 524.968 413.809 522.711 414.242C521.558 414.449 520.411 414.655 519.269 414.848C487.206 420.353 454.47 421.406 421.886 422.418C387.802 423.519 353.687 424.606 319.566 425.171L312.799 425.274C261.029 426.003 209.28 425.391 157.699 421.551C141.692 420.367 125.526 418.798 109.655 416.155C107.392 415.793 105.136 415.396 102.888 414.965C81.8386 411.021 61.4158 404.972 42.8085 395.152C38.416 392.859 34.1194 390.263 29.937 387.375C18.2495 379.261 8.39329 369 3.51518 356.407C0.677532 349.023 -0.49079 340.734 0.147334 332.513C0.356041 329.524 0.74847 326.562 1.32082 323.656C2.78796 316.465 5.02553 309.581 7.96705 303.21C15.5657 286.404 26.9796 271.339 36.82 255.559C57.8269 221.927 71.5088 179.432 52.1226 144.96C46.5604 135.057 38.5197 126.379 33.9889 116.022C31.5651 110.427 30.053 104.236 29.5476 97.8399C29.3016 94.8992 29.2084 91.9401 29.2687 88.9829C29.4836 82.0773 30.1437 75.2078 31.242 68.4473C34.3994 47.3061 40.2984 24.5133 58.5163 11.3276C70.951 2.32605 86.8009 -0.467998 102.872 0.0619078C105.128 0.130727 107.383 0.268364 109.639 0.474821C115.801 1.00473 121.926 1.98196 127.841 3.22758C164.382 10.8596 198.108 26.805 232.155 41.2019C258.077 52.1579 284.925 62.405 312.783 67.2912C315.036 67.6834 317.288 68.0482 319.551 68.3648C326.081 69.3007 332.669 69.9201 339.31 70.1747C372.363 71.4134 410.924 62.054 432.873 37.7472C454.075 14.2524 493.837 12.3599 522.695 26.3921L523.126 26.6054C525.298 27.6881 527.403 28.8535 529.441 30.1014C550.706 43.177 564.951 65.5707 566.961 89.0036C567.212 91.914 567.272 94.8473 567.14 97.7711C567.143 97.8008 567.143 97.8309 567.14 97.8606C565.761 126.689 547.743 150.899 529.446 175.151C527.183 178.145 524.915 181.138 522.674 184.153C516.738 192.122 510.986 200.153 505.998 208.418C503.72 212.165 501.624 216.095 499.725 220.186C497.979 223.96 496.488 227.925 495.268 232.037C493.981 236.294 493.154 240.764 492.81 245.319C492.297 251.848 493.21 258.434 495.441 264.313L495.489 264.451C500.372 277.113 510.707 286.087 522.674 294.043C524.879 295.516 527.147 296.947 529.446 298.365C542.423 306.375 556.405 313.815 567.035 323.704C569.9 326.31 572.574 329.259 575.023 332.513C576.019 333.862 576.961 335.279 577.843 336.759C581.725 343.172 583.884 351.078 583.989 359.256C583.995 359.462 583.995 359.648 583.995 359.834Z" fill="url(#paint0_linear)"/>
<path d="M529.467 30.1014V175.144C527.204 178.145 524.936 181.138 522.695 184.153V26.3921L529.467 30.1014Z" fill="#3F3D56"/>
<path d="M567.166 97.7711C567.169 97.8009 567.169 97.8309 567.166 97.8606H29.5476C29.3018 94.9199 29.2087 91.9608 29.2687 89.0036H566.987C567.239 91.914 567.299 94.8473 567.166 97.7711V97.7711Z" fill="#3F3D56"/>
<path d="M126.989 51.9996C128.079 51.9996 128.962 50.8442 128.962 49.4189C128.962 47.9936 128.079 46.8382 126.989 46.8382C125.899 46.8382 125.015 47.9936 125.015 49.4189C125.015 50.8442 125.899 51.9996 126.989 51.9996Z" fill="#E7EFFD"/>
<path d="M63.7891 46.8313C64.8789 46.8313 65.7624 45.6759 65.7624 44.2506C65.7624 42.8253 64.8789 41.6699 63.7891 41.6699C62.6992 41.6699 61.8157 42.8253 61.8157 44.2506C61.8157 45.6759 62.6992 46.8313 63.7891 46.8313Z" fill="#E7EFFD"/>
<path d="M149.28 50.5269C149.748 50.5269 150.127 50.0308 150.127 49.4189C150.127 48.807 149.748 48.3109 149.28 48.3109C148.812 48.3109 148.432 48.807 148.432 49.4189C148.432 50.0308 148.812 50.5269 149.28 50.5269Z" fill="#E7EFFD"/>
<path d="M85.7958 47.9462C86.2637 47.9462 86.6431 47.4501 86.6431 46.8382C86.6431 46.2263 86.2637 45.7302 85.7958 45.7302C85.3279 45.7302 84.9486 46.2263 84.9486 46.8382C84.9486 47.4501 85.3279 47.9462 85.7958 47.9462Z" fill="#E7EFFD"/>
<path d="M84.9539 125.333C85.4218 125.333 85.8011 124.837 85.8011 124.225C85.8011 123.613 85.4218 123.117 84.9539 123.117C84.486 123.117 84.1067 123.613 84.1067 124.225C84.1067 124.837 84.486 125.333 84.9539 125.333Z" fill="#E7EFFD"/>
<path d="M475.713 66.8507C476.181 66.8507 476.56 66.3547 476.56 65.7428C476.56 65.1308 476.181 64.6348 475.713 64.6348C475.245 64.6348 474.866 65.1308 474.866 65.7428C474.866 66.3547 475.245 66.8507 475.713 66.8507Z" fill="#E7EFFD"/>
<path d="M188.778 67.8693C189.246 67.8693 189.625 67.3732 189.625 66.7613C189.625 66.1494 189.246 65.6533 188.778 65.6533C188.31 65.6533 187.931 66.1494 187.931 66.7613C187.931 67.3732 188.31 67.8693 188.778 67.8693Z" fill="#E7EFFD"/>
<path d="M433.957 65.6533C434.425 65.6533 434.804 65.1572 434.804 64.5453C434.804 63.9334 434.425 63.4373 433.957 63.4373C433.489 63.4373 433.11 63.9334 433.11 64.5453C433.11 65.1572 433.489 65.6533 433.957 65.6533Z" fill="#E7EFFD"/>
<path d="M540.607 68.9773C541.075 68.9773 541.455 68.4812 541.455 67.8693C541.455 67.2574 541.075 66.7613 540.607 66.7613C540.139 66.7613 539.76 67.2574 539.76 67.8693C539.76 68.4812 540.139 68.9773 540.607 68.9773Z" fill="#E7EFFD"/>
<path d="M583.995 359.834C583.995 360.24 583.995 360.646 583.995 361.059C583.726 373.845 578.311 386.598 568.376 395.572C557.915 405.013 543.886 409.982 529.483 413.155C527.231 413.65 524.968 414.098 522.711 414.531C521.558 414.738 520.411 414.944 519.269 415.137C511.376 416.513 503.44 417.566 495.478 418.447C484.796 419.631 474.061 420.45 463.315 421.055C449.518 421.847 435.694 422.294 421.886 422.741C394.896 423.608 367.884 424.475 340.847 425.074L331.254 425.281L319.551 425.487L312.783 425.59C270.159 426.182 227.598 425.879 185.11 423.608C182.283 423.462 179.461 423.301 176.643 423.127C170.329 422.764 164.014 422.344 157.699 421.867C145.044 420.931 132.288 419.748 119.669 417.993C116.322 417.534 112.989 417.027 109.671 416.472C107.408 416.109 105.152 415.713 102.903 415.281C100.399 414.822 97.9043 414.322 95.4205 413.781C77.0026 409.845 59.2214 404.146 42.8242 395.461C38.428 393.157 34.1264 390.554 29.937 387.664V266.543C32.2734 262.999 34.5941 259.454 36.8253 255.869C39.509 251.561 42.0875 247.122 44.4555 242.566H95.3942V201.516H185.116V291.765H331.254V220.193H499.857C498.144 223.846 496.667 227.678 495.441 231.652V232.037H495.247C493.96 236.294 493.133 240.764 492.789 245.319C492.276 251.848 493.189 258.434 495.42 264.313V264.602L495.468 264.74C500.351 277.402 510.686 286.376 522.653 294.332C524.857 295.805 527.126 297.236 529.425 298.654C542.27 306.582 556.11 313.959 566.698 323.704L567.013 323.993C569.801 326.522 572.409 329.373 574.807 332.513C574.886 332.609 574.954 332.705 575.023 332.802C576.019 334.151 576.961 335.568 577.843 337.048C581.677 343.385 583.834 351.178 583.989 359.256C583.995 359.462 583.995 359.648 583.995 359.834Z" fill="#6C63FF"/>
<path opacity="0.3" d="M583.995 359.834C583.995 360.24 583.995 360.646 583.995 361.059C583.726 373.845 578.311 386.598 568.376 395.572C557.915 405.013 543.886 409.982 529.483 413.155C527.231 413.65 524.968 414.098 522.711 414.531C521.558 414.738 520.411 414.944 519.269 415.137C511.376 416.513 503.44 417.566 495.478 418.447C484.796 419.631 474.061 420.45 463.315 421.055C449.518 421.847 435.694 422.294 421.886 422.741C394.896 423.608 367.884 424.475 340.847 425.074L331.254 425.281L319.551 425.487L312.783 425.59C270.159 426.182 227.598 425.879 185.11 423.608C182.283 423.462 179.461 423.301 176.643 423.127C170.329 422.764 164.014 422.344 157.699 421.867C145.044 420.931 132.288 419.748 119.669 417.993C116.322 417.534 112.989 417.027 109.671 416.472C107.408 416.109 105.152 415.713 102.903 415.281C100.399 414.822 97.9043 414.322 95.4205 413.781C77.0026 409.845 59.2214 404.146 42.8242 395.461C38.428 393.157 34.1264 390.554 29.937 387.664V266.543C32.2734 262.999 34.5941 259.454 36.8253 255.869C39.509 251.561 42.0875 247.122 44.4555 242.566H95.3942V201.516H185.116V291.765H331.254V220.193H499.857C498.144 223.846 496.667 227.678 495.441 231.652V232.037H495.247C493.96 236.294 493.133 240.764 492.789 245.319C492.276 251.848 493.189 258.434 495.42 264.313V264.602L495.468 264.74C500.351 277.402 510.686 286.376 522.653 294.332C524.857 295.805 527.126 297.236 529.425 298.654C542.27 306.582 556.11 313.959 566.698 323.704L567.013 323.993C569.801 326.522 572.409 329.373 574.807 332.513C574.886 332.609 574.954 332.705 575.023 332.802C576.019 334.151 576.961 335.568 577.843 337.048C581.677 343.385 583.834 351.178 583.989 359.256C583.995 359.462 583.995 359.648 583.995 359.834Z" fill="black"/>
<path opacity="0.4" d="M61.721 259.303H46.671V272.585H61.721V259.303Z" fill="black"/>
<path opacity="0.4" d="M85.8011 259.303H70.751V272.585H85.8011V259.303Z" fill="black"/>
<path opacity="0.4" d="M362.296 232.003H347.246V245.285H362.296V232.003Z" fill="black"/>
<path opacity="0.4" d="M402.926 232.003H387.876V245.285H402.926V232.003Z" fill="black"/>
<path opacity="0.4" d="M446.56 232.003H431.51V245.285H446.56V232.003Z" fill="black"/>
<path opacity="0.4" d="M362.296 272.592H347.246V285.874H362.296V272.592Z" fill="black"/>
<path opacity="0.4" d="M402.926 272.592H387.876V285.874H402.926V272.592Z" fill="black"/>
<path d="M446.56 272.592H431.51V285.874H446.56V272.592Z" fill="#6C63FF"/>
<path opacity="0.4" d="M362.296 313.175H347.246V326.457H362.296V313.175Z" fill="black"/>
<path opacity="0.4" d="M402.926 313.175H387.876V326.457H402.926V313.175Z" fill="black"/>
<path opacity="0.4" d="M446.56 313.175H431.51V326.457H446.56V313.175Z" fill="black"/>
<path opacity="0.4" d="M362.296 353.764H347.246V367.046H362.296V353.764Z" fill="black"/>
<path opacity="0.4" d="M402.926 353.764H387.876V367.046H402.926V353.764Z" fill="black"/>
<path opacity="0.4" d="M446.56 353.764H431.51V367.046H446.56V353.764Z" fill="black"/>
<path opacity="0.4" d="M362.296 394.353H347.246V407.635H362.296V394.353Z" fill="black"/>
<path opacity="0.4" d="M402.926 394.353H387.876V407.635H402.926V394.353Z" fill="black"/>
<path opacity="0.4" d="M446.56 394.353H431.51V407.635H446.56V394.353Z" fill="black"/>
<path opacity="0.4" d="M495.268 232.037C493.981 236.294 493.154 240.764 492.81 245.319H484.554V232.037H495.268Z" fill="black"/>
<path d="M499.604 272.592H484.554V285.874H499.604V272.592Z" fill="#6C63FF"/>
<path opacity="0.4" d="M499.604 313.175H484.554V326.457H499.604V313.175Z" fill="black"/>
<path opacity="0.4" d="M499.604 353.764H484.554V367.046H499.604V353.764Z" fill="black"/>
<path opacity="0.4" d="M499.604 394.353H484.554V407.635H499.604V394.353Z" fill="black"/>
<path opacity="0.4" d="M145.238 216.505H130.188V229.787H145.238V216.505Z" fill="black"/>
<path d="M145.238 246.283H130.188V259.565H145.238V246.283Z" fill="#6C63FF"/>
<path opacity="0.4" d="M145.238 276.054H130.188V289.336H145.238V276.054Z" fill="black"/>
<path opacity="0.4" d="M145.238 305.832H130.188V319.114H145.238V305.832Z" fill="black"/>
<path opacity="0.4" d="M145.238 335.603H130.188V348.885H145.238V335.603Z" fill="black"/>
<path opacity="0.4" d="M145.238 365.381H130.188V378.663H145.238V365.381Z" fill="black"/>
<path opacity="0.4" d="M145.238 395.152H130.188V408.434H145.238V395.152Z" fill="black"/>
<path opacity="0.4" d="M61.721 294.015H46.671V307.297H61.721V294.015Z" fill="black"/>
<path opacity="0.4" d="M85.8011 294.015H70.751V307.297H85.8011V294.015Z" fill="black"/>
<path opacity="0.4" d="M61.721 328.728H46.671V342.01H61.721V328.728Z" fill="black"/>
<path opacity="0.4" d="M85.8011 328.728H70.751V342.01H85.8011V328.728Z" fill="black"/>
<path opacity="0.4" d="M61.721 363.44H46.671V376.722H61.721V363.44Z" fill="black"/>
<path opacity="0.4" d="M85.8011 363.44H70.751V376.722H85.8011V363.44Z" fill="black"/>
<path opacity="0.4" d="M290.445 307.242H215.205V319.114H290.445V307.242Z" fill="black"/>
<path opacity="0.4" d="M290.445 345.12H215.205V356.992H290.445V345.12Z" fill="black"/>
<path opacity="0.4" d="M290.445 383.005H215.205V394.876H290.445V383.005Z" fill="black"/>
<path d="M109.639 0.474864V416.142C107.376 415.779 105.121 415.382 102.872 414.951V0.0619507C105.129 0.117006 107.382 0.268407 109.639 0.474864Z" fill="#3F3D56"/>
<path d="M319.551 68.351V425.184L312.783 425.288V67.2706C315.036 67.6697 317.291 68.0299 319.551 68.351Z" fill="#3F3D56"/>
<path d="M575.023 332.513H0.147339C0.356045 329.524 0.748475 326.562 1.32082 323.656H567.055C569.918 326.275 572.585 329.24 575.023 332.513V332.513Z" fill="#3F3D56"/>
<path d="M522.695 294.015C524.9 295.488 527.168 296.92 529.467 298.337V412.866C527.215 413.361 524.952 413.809 522.695 414.242V294.015Z" fill="#3F3D56"/>
<path d="M177.512 158.153H176.217V156.46H175.986V158.153H174.691V158.456H175.986V160.149H176.217V158.456H177.512V158.153Z" fill="#E7EFFD"/>
<path d="M446.56 122.966H445.266V121.273H445.029V122.966H443.74V123.269H445.029V124.962H445.266V123.269H446.56V122.966Z" fill="#E7EFFD"/>
<path d="M208.175 116.118H206.88V114.425H206.644V116.118H205.354V116.428H206.644V118.114H206.88V116.428H208.175V116.118Z" fill="#E7EFFD"/>
<path d="M206.202 225.43C206.669 225.43 207.049 224.934 207.049 224.322C207.049 223.71 206.669 223.214 206.202 223.214C205.734 223.214 205.354 223.71 205.354 224.322C205.354 224.934 205.734 225.43 206.202 225.43Z" fill="#E7EFFD"/>
<path d="M399.416 126.441C399.884 126.441 400.263 125.945 400.263 125.333C400.263 124.721 399.884 124.225 399.416 124.225C398.948 124.225 398.569 124.721 398.569 125.333C398.569 125.945 398.948 126.441 399.416 126.441Z" fill="#E7EFFD"/>
<path d="M484.554 178.916C485.022 178.916 485.401 178.42 485.401 177.808C485.401 177.196 485.022 176.7 484.554 176.7C484.086 176.7 483.707 177.196 483.707 177.808C483.707 178.42 484.086 178.916 484.554 178.916Z" fill="#E7EFFD"/>
<path d="M351.219 188.42C351.687 188.42 352.066 187.923 352.066 187.312C352.066 186.7 351.687 186.204 351.219 186.204C350.751 186.204 350.372 186.7 350.372 187.312C350.372 187.923 350.751 188.42 351.219 188.42Z" fill="#E7EFFD"/>
<path d="M376.42 373.804C376.42 373.804 358.365 379.516 351.219 390.204C348.824 393.775 345.272 396.349 341.605 398.187V382.062C345.736 372.992 349.898 362.903 349.898 362.903C350.087 362.408 351.592 355.45 351.592 355.45C354.981 351.968 351.403 339.801 351.403 339.801C351.403 339.801 353.476 332.1 352.345 330.606C351.214 329.113 352.155 325.142 353.097 323.401C354.039 321.66 353.85 319.423 353.85 317.937C353.85 316.45 352.345 314.207 349.898 312.968C347.451 311.729 350.087 309.74 351.592 309.238C353.097 308.736 353.476 304.022 351.782 301.537C350.087 299.053 351.971 297.566 352.908 294.834C353.845 292.102 349.882 292.598 349.882 292.598V267.479C349.882 267.479 348.751 259.282 347.625 244.872C346.499 230.461 342.168 228.975 342.168 228.975C339.848 228.032 337.584 226.868 335.395 225.492C333.09 224.079 330.7 222.917 328.249 222.017C328.249 222.017 323.171 222.017 319.03 220.351C314.888 218.686 312.741 218.569 312.741 218.569L312.062 218.129C306.97 214.742 302.935 209.147 300.649 202.3C300.533 201.956 300.428 201.612 300.322 201.282C301.447 199.67 302.453 197.924 303.327 196.065V196.024C303.327 196.279 303.327 196.533 303.327 196.788C303.327 196.891 303.327 197.001 303.327 197.104C303.327 197.717 303.327 198.329 303.327 198.942V199.004C306.327 192.074 315.03 190.491 315.856 182.577C315.894 182.216 315.913 181.853 315.914 181.489V181.441C315.914 181.18 315.914 180.911 315.914 180.643C315.804 178.434 315.225 176.232 315.114 174.002C315.078 173.363 315.078 172.721 315.114 172.082V172.123C315.504 165.978 319.045 160.63 320.666 154.664C321.102 153.059 321.387 151.39 321.513 149.695V149.647C321.555 149.138 321.582 148.621 321.592 148.105C321.592 147.981 321.592 147.851 321.592 147.727C321.592 147.369 321.592 147.039 321.592 146.653C321.543 143.479 320.997 140.351 319.988 137.463C318.979 134.575 317.528 131.988 315.725 129.861C312.725 126.455 308.763 124.315 306.684 119.862C305.716 117.797 305.242 115.347 304.185 113.352C302.196 109.58 298.544 108.046 295.086 107.502C291.629 106.958 288.077 107.137 284.772 105.72C282.425 104.715 280.299 102.933 277.931 102.038C275.351 101.135 272.622 101.286 270.109 102.471C267.597 103.655 265.422 105.817 263.876 108.665C262.629 111.046 261.813 113.895 260.129 115.754C256.682 119.566 250.836 117.914 247.815 122.305C246.158 124.721 245.968 128.01 246.168 131.369C246.168 131.41 246.168 131.451 246.168 131.492C246.168 131.747 246.205 132.009 246.226 132.27C246.226 132.394 246.226 132.518 246.226 132.635C246.226 132.752 246.226 132.896 246.263 133.027C246.368 134.231 246.5 135.429 246.616 136.585C246.616 136.764 246.647 136.936 246.663 137.115L246.758 138.195C246.758 138.457 246.789 138.718 246.81 138.98C246.831 139.241 246.847 139.668 246.863 139.957C246.879 140.246 246.863 140.466 246.9 140.728C247.237 149.899 245.751 159.028 242.585 167.223C239.738 174.525 235.507 181.255 234.77 189.41C234.656 190.747 234.628 192.094 234.686 193.436C234.686 193.595 234.686 193.753 234.686 193.911C234.686 194.07 234.718 194.393 234.733 194.634C234.749 194.875 234.776 195.191 234.802 195.467C234.802 195.625 234.833 195.783 234.849 195.941C234.886 196.306 234.928 196.671 234.976 197.043L235.007 197.276C235.754 202.837 237.449 208.288 238.349 213.903C238.686 215.974 238.911 218.074 239.022 220.186C239.02 220.2 239.02 220.214 239.022 220.228C239.054 220.916 239.08 221.57 239.096 222.244C239.096 223.152 239.096 224.068 239.096 224.997C237.667 225.715 236.203 226.303 234.712 226.759C232.081 227.254 224.362 236.201 224.925 238.458C225.488 240.715 221.473 256.351 221.362 256.826L215.047 313.945C215.047 313.945 211.695 318.171 212.743 320.903C213.79 323.635 212.537 328.356 212.537 328.356C212.537 328.356 206.875 331.584 208.133 333.572C209.39 335.561 208.817 339.284 207.954 341.769C207.091 344.253 205.675 348.726 207.954 349.47C210.232 350.213 208.343 359.91 208.343 359.91C208.343 359.91 216.284 358.712 215.71 364.878C215.521 366.84 221.262 372.235 223.656 374.396V404.084C220.441 402.908 216.663 401.38 214.253 399.907C209.364 396.927 181.9 391.215 175.88 408.358C169.86 425.501 184.158 448.356 187.731 450.84C187.731 450.84 191.12 454.315 191.872 456.057C192.625 457.798 196.95 458.293 196.95 458.293C196.95 458.293 201.466 461.046 202.592 462.512C203.423 463.613 210.301 466.469 218.452 468.705C218.452 468.705 211.869 488.525 222.609 486.894C233.35 485.263 238.58 478.347 246.153 478.347C249.178 478.347 254.798 477.79 260.455 477.129C261.876 477.458 263.282 477.892 264.665 478.43C267.852 479.74 271.125 480.662 274.442 481.182C274.442 481.182 282.909 487.142 287.424 485.649C287.797 485.512 288.144 485.278 288.445 484.961H288.551C289.372 484.692 290.303 483.584 291.271 481.912C296.918 482.669 303.374 483.742 305.774 484.967C310.452 487.328 343.915 484.059 343.915 484.059C343.915 484.059 365.532 484.616 371.726 487.066C377.92 489.516 375.72 462.051 364.29 458.961C361.239 458.16 358.135 457.759 355.023 457.763C355.815 456.696 356.538 455.545 357.186 454.322C361.301 453.834 364.027 453.531 364.027 453.531C364.027 453.531 374.936 446.573 381.145 442.348C385.11 439.528 388.671 435.83 391.67 431.419C391.67 431.419 397.121 426.946 399.379 425.226C401.636 423.505 402.763 417.773 402.763 417.773C419.87 367.087 376.42 373.804 376.42 373.804ZM327.439 310.229C327.439 309.396 327.439 308.557 327.439 307.724C328.049 308.288 327.96 309.176 327.439 310.222V310.229ZM327.618 327.799C328.075 328.583 328.517 329.299 328.833 329.863C330.049 331.928 327.849 332.891 328.007 336.311C328.044 337.075 328.096 338.142 328.149 339.326C327.918 334.391 327.728 330.331 327.618 327.792V327.799Z" fill="url(#paint1_linear)"/>
<path d="M229.708 406.197C229.708 406.197 219.184 402.997 214.284 400.045C209.385 397.092 181.932 391.435 175.912 408.413C169.892 425.391 184.19 448.012 187.763 450.475C191.336 452.939 226.135 419.225 226.135 419.225L253.583 434.365L258.845 410.87L229.708 406.197Z" fill="#65617D"/>
<path d="M341.431 410.87H260.703C249.999 410.87 241.322 422.218 241.322 436.216V439.884C241.322 453.882 249.999 465.23 260.703 465.23H341.431C352.135 465.23 360.812 453.882 360.812 439.884V436.216C360.812 422.218 352.135 410.87 341.431 410.87Z" fill="#65617D"/>
<path opacity="0.1" d="M360.812 438.047C360.816 443.393 359.611 448.622 357.349 453.077C356.58 454.586 355.699 455.992 354.718 457.275C352.79 459.803 350.499 461.808 347.977 463.174C345.455 464.541 342.751 465.242 340.021 465.237H262.108C256.595 465.237 251.308 462.373 247.41 457.275C243.512 452.177 241.322 445.263 241.322 438.053C241.322 430.844 243.512 423.93 247.41 418.832C251.308 413.734 256.595 410.87 262.108 410.87H340.026C345.538 410.87 350.824 413.733 354.722 418.829C358.62 423.926 360.811 430.838 360.812 438.047V438.047Z" fill="black"/>
<path d="M295.755 439.636C295.755 439.636 283.772 443.662 273.995 443.483C264.218 443.304 218.484 468.155 218.484 468.155C218.484 468.155 211.901 487.782 222.641 486.158C233.381 484.534 238.612 477.721 246.184 477.721C253.757 477.721 277.579 474.28 277.579 474.28L300.501 452.134L295.755 439.636Z" fill="#95522D"/>
<path d="M303.253 254.424L281.762 259.964L280.368 260.328C280.368 260.328 263.376 254.424 262.813 253.928C262.25 253.433 246.826 226.256 246.826 226.256C246.826 226.256 254.625 226.366 260.75 221.749C260.971 221.583 261.187 221.404 261.403 221.232C264.096 219.108 266.142 215.827 267.191 211.949C267.302 211.543 267.396 211.123 267.486 210.682C268.138 207.393 268.18 203.408 267.307 198.584C265.202 187.112 270.043 183.953 276.458 184.228C285.725 184.628 298.338 192.191 298.338 192.191C298.502 196.051 299.173 199.846 300.322 203.408C300.422 203.739 300.533 204.096 300.649 204.413C302.95 211.205 306.985 216.74 312.062 220.069L312.741 220.51C313.425 220.936 314.146 221.342 314.893 221.707C331.28 229.828 303.253 254.424 303.253 254.424Z" fill="#95522D"/>
<path opacity="0.1" d="M300.67 204.413C296.583 210.464 291.039 214.509 284.955 215.88C278.871 217.25 272.611 215.863 267.212 211.949C268.138 208.425 268.312 204.041 267.328 198.584C262.25 170.54 298.375 192.191 298.375 192.191C298.553 196.416 299.331 200.561 300.67 204.413V204.413Z" fill="black"/>
<path d="M307.453 179.501C307.461 186.128 306.039 192.624 303.348 198.24C302.472 200.082 301.466 201.812 300.343 203.408C295.604 210.202 289.02 214.302 281.999 214.832C281.473 214.88 280.91 214.901 280.363 214.901C275.006 214.901 269.769 212.824 265.315 208.932C260.861 205.039 257.389 199.507 255.339 193.035C253.289 186.563 252.753 179.441 253.798 172.57C254.843 165.699 257.423 159.387 261.211 154.433C264.999 149.48 269.825 146.106 275.079 144.739C280.332 143.373 285.778 144.074 290.727 146.755C295.677 149.436 299.907 153.976 302.883 159.801C305.859 165.626 307.447 172.474 307.447 179.48L307.453 179.501Z" fill="#95522D"/>
<path opacity="0.1" d="M303.253 254.424L281.762 259.964L280.368 260.328C280.368 260.328 263.376 254.424 262.813 253.928C262.25 253.433 246.826 226.256 246.826 226.256C246.826 226.256 254.625 226.366 260.75 221.749C260.971 221.583 261.187 221.404 261.403 221.232C263.35 223.985 269.722 231.769 279.736 231.714C281.022 231.714 282.306 231.592 283.578 231.349C286.598 230.743 289.645 230.351 292.687 229.972C298.512 229.174 307.421 226.862 312.099 220.131L312.778 220.572C313.462 220.998 314.183 221.404 314.93 221.769C331.28 229.828 303.253 254.424 303.253 254.424Z" fill="black"/>
<path d="M327.518 326.25C327.702 331.666 330.717 392.667 330.717 392.667H236.854L237.491 354.259L238.017 323.539L238.186 313.457L238.938 278.531L236.217 275.393L221.43 258.353C221.541 257.899 225.551 242.353 224.993 240.164C224.435 237.976 232.144 229.098 234.781 228.603C236.279 228.148 237.752 227.562 239.191 226.848C243.627 224.783 249.547 221.81 250.199 222.278C251.12 222.925 260.35 221.804 260.724 221.755C260.724 221.755 267.533 233.269 279.699 233.2C280.981 233.191 282.259 233.058 283.525 232.801C286.546 232.195 289.593 231.803 292.634 231.39C298.754 230.557 308.268 228.045 312.725 220.517C312.725 220.517 314.878 220.634 319.014 222.278C323.15 223.923 328.233 223.93 328.233 223.93C330.683 224.821 333.073 225.972 335.379 227.371C337.57 228.731 339.834 229.881 342.152 230.812C342.152 230.812 346.478 232.285 347.609 246.551C348.74 260.817 349.882 268.938 349.882 268.938L327.518 294.27C327.518 294.27 327.333 320.813 327.518 326.25Z" fill="#6C63FF"/>
<path d="M221.436 368.808L224.725 375.697L237.044 381.374L245.511 361.183L237.707 354.294L225.198 347.901L218.052 353.31L221.436 368.808Z" fill="#95522D"/>
<path d="M326.576 402.749C326.576 402.749 344.067 401.029 351.219 390.451C358.37 379.874 376.42 374.217 376.42 374.217C376.42 374.217 419.87 367.576 402.731 417.759C402.731 417.759 401.605 423.416 399.347 425.136C397.09 426.857 391.638 431.289 391.638 431.289L324.897 423.663L326.576 402.749Z" fill="#65617D"/>
<path opacity="0.1" d="M360.812 438.047C360.816 443.393 359.611 448.622 357.349 453.077C346.12 454.377 321.25 457.433 316.046 459.332C309.652 461.651 296.712 457.612 295.297 457.158L295.165 457.116C295.165 457.116 292.671 447.22 291.482 440.889C290.955 438.012 290.677 435.872 291.024 435.714C292.155 435.225 302.501 431.529 302.311 433.649C302.122 435.769 333.359 417.779 333.359 417.779L334.316 433.525C337.49 438.274 360.812 431.213 360.812 438.047Z" fill="black"/>
<path d="M392.975 424.888L391.659 431.289C388.654 435.661 385.094 439.321 381.135 442.107C374.925 446.291 364.017 453.18 364.017 453.18C364.017 453.18 323.955 457.605 317.183 460.062C310.41 462.519 296.302 457.846 296.302 457.846C296.302 457.846 291.04 436.939 292.166 436.443C293.292 435.948 303.637 432.266 303.453 434.379C303.269 436.491 334.501 418.509 334.501 418.509L392.975 424.888Z" fill="#65617D"/>
<path d="M281.431 480.04C281.431 480.04 301.122 481.836 305.806 484.169C310.489 486.502 343.946 483.274 343.946 483.274C343.946 483.274 365.564 483.825 371.757 486.247C377.951 488.67 375.751 461.473 364.322 458.424C352.892 455.375 336.784 459.862 336.784 459.862C336.784 459.862 318.609 456.8 316.404 456.421C314.199 456.043 299.68 456.593 299.68 456.593L281.431 480.04Z" fill="#95522D"/>
<path opacity="0.1" d="M204.049 412.15C204.049 412.15 230.076 415.212 237.233 420.794L204.049 412.15Z" fill="black"/>
<path opacity="0.1" d="M366.39 389.825C366.39 389.825 346.009 396.308 338.021 405.846L366.39 389.825Z" fill="black"/>
<path opacity="0.1" d="M205.565 404.408C205.981 404.587 217.547 406.569 217.268 408.007C216.989 409.445 205.565 404.408 205.565 404.408Z" fill="black"/>
<path opacity="0.1" d="M187.389 442.355L188.894 449.739C188.894 449.739 192.278 453.18 193.03 454.9C193.783 456.621 198.108 457.116 198.108 457.116C198.108 457.116 202.623 459.821 203.755 461.294C204.886 462.766 217.105 467.446 228.582 469.414C240.059 471.382 261.308 475.071 265.823 477.039C269.013 478.333 272.288 479.239 275.605 479.744C275.605 479.744 284.067 485.649 288.582 484.176C293.097 482.703 300.806 455.884 300.806 455.884C300.806 455.884 271.09 446.787 270.148 443.834C269.207 440.882 240.617 427.111 240.617 427.111L223.688 427.634L187.389 442.355Z" fill="black"/>
<path d="M186.258 443.091L187.763 450.475C187.763 450.475 191.151 453.916 191.904 455.637C192.656 457.357 196.982 457.853 196.982 457.853C196.982 457.853 201.497 460.557 202.623 462.037C203.749 463.516 215.979 468.182 227.451 470.151C238.922 472.119 260.182 475.808 264.697 477.776C267.886 479.066 271.159 479.969 274.474 480.473C274.474 480.473 282.941 486.371 287.456 484.899C291.971 483.426 299.68 456.607 299.68 456.607C299.68 456.607 269.959 447.509 269.022 444.557C268.086 441.605 226.135 419.225 226.135 419.225L212.979 415.288L186.258 443.091Z" fill="#65617D"/>
<path d="M224.719 255.897L221.43 258.36L215.116 314.936C215.116 314.936 211.764 319.121 212.811 321.818C213.858 324.516 212.606 329.196 212.606 329.196C212.606 329.196 206.943 332.396 208.201 334.364C209.459 336.332 208.885 340.021 208.022 342.478C207.159 344.935 205.744 349.36 208.022 350.103C210.301 350.846 208.412 360.426 208.412 360.426C208.412 360.426 216.352 359.242 215.779 365.339C215.542 367.803 224.756 375.662 224.756 375.662C224.756 375.662 214.284 350.819 237.743 354.26L239.759 340.255C239.759 340.255 241.774 332.368 239.759 329.932C237.743 327.496 240.211 315.79 240.211 315.79L240.654 264.994L224.719 255.897Z" fill="#6C63FF"/>
<path opacity="0.1" d="M219.61 328.962C220.025 329.863 232.692 331.714 233.518 334.653C234.344 337.592 219.61 328.962 219.61 328.962Z" fill="black"/>
<path opacity="0.1" d="M215.616 343.008C215.616 343.008 217.336 335.981 221.404 337.241C225.472 338.5 215.616 343.008 215.616 343.008Z" fill="black"/>
<path opacity="0.1" d="M213.416 353.268C213.416 353.268 216.442 343.902 220.573 344.625C224.704 345.347 213.416 353.268 213.416 353.268Z" fill="black"/>
<path d="M351.219 353.062L349.898 363.385C349.898 363.385 336.358 395.861 333.911 396.349C331.464 396.838 318.124 374.706 318.124 374.706L314.551 353.055L328.617 349.566L334.864 341.494C334.864 341.494 350.65 343.469 351.219 353.062Z" fill="#95522D"/>
<path d="M344.82 264.265L349.898 268.938V293.781C349.898 293.781 353.85 293.286 352.908 295.997C351.966 298.709 350.087 300.175 351.782 302.638C353.476 305.102 353.097 309.768 351.592 310.264C350.087 310.759 347.456 312.72 349.898 313.952C352.34 315.184 353.85 317.393 353.85 318.873C353.85 320.352 354.039 322.561 353.097 324.282C352.156 326.002 351.219 329.939 352.345 331.418C353.471 332.898 351.403 340.516 351.403 340.516C351.403 340.516 354.981 352.573 351.592 356.014C351.592 356.014 350.087 362.896 349.898 363.392C349.898 363.392 352.271 339.45 328.607 349.573C328.607 349.573 328.17 340.448 328.007 337.069C327.844 333.689 330.049 332.699 328.833 330.682C327.618 328.666 324.576 324.034 326.013 322.809C327.449 321.584 326.955 319.368 326.386 317.641C325.818 315.914 323.834 315.92 325.634 313.828C327.433 311.736 328.502 309.775 327.444 308.791C326.386 307.807 324.55 304.6 326.013 303.127C327.476 301.654 327.518 280.252 327.518 280.252C327.518 280.252 333.538 248.767 344.82 264.265Z" fill="#6C63FF"/>
<path opacity="0.1" d="M342.431 306.589C342.431 306.589 349.661 304.022 349.898 306.589C350.135 309.156 342.431 306.589 342.431 306.589Z" fill="black"/>
<path opacity="0.1" d="M334.306 313.656C334.306 313.656 344.22 310.415 345.457 312.934C346.693 315.452 334.306 313.656 334.306 313.656Z" fill="black"/>
<path opacity="0.1" d="M332.101 320.497C332.101 320.497 346.972 317.792 347.935 321.756C348.898 325.72 332.101 320.497 332.101 320.497Z" fill="black"/>
<path opacity="0.1" d="M334.306 328.962C334.858 329.141 348.624 330.4 348.898 333.82C349.172 337.241 334.306 328.962 334.306 328.962Z" fill="black"/>
<path d="M336.1 340.048H229.203C226.16 340.048 223.693 343.274 223.693 347.254V420.429C223.693 424.408 226.16 427.634 229.203 427.634H336.1C339.143 427.634 341.61 424.408 341.61 420.429V347.254C341.61 343.274 339.143 340.048 336.1 340.048Z" fill="#3F3D56"/>
<path d="M282.652 389.529C285.052 389.529 286.998 386.984 286.998 383.845C286.998 380.705 285.052 378.16 282.652 378.16C280.251 378.16 278.305 380.705 278.305 383.845C278.305 386.984 280.251 389.529 282.652 389.529Z" fill="#E7EFFD"/>
<path opacity="0.1" d="M243.437 286.363C243.437 286.363 254.741 297.663 263.481 289.054C263.481 289.054 248.705 290.808 243.437 286.363Z" fill="black"/>
<path opacity="0.1" d="M300.67 289.404C300.67 289.404 311.968 300.698 320.708 292.088C320.708 292.088 305.937 293.85 300.67 289.404Z" fill="black"/>
<path opacity="0.1" d="M307.453 179.501C307.461 186.128 306.039 192.624 303.348 198.24C303.122 188.378 301.348 178.51 297.244 170.272C293.487 162.702 282.062 149.495 274.211 153.177C273.39 153.571 272.651 154.212 272.055 155.049C271.459 155.886 271.022 156.895 270.78 157.995C270.001 161.862 272.28 163.5 273.743 166.549C276.223 171.832 277.193 178.093 276.479 184.222C276.379 185.046 276.248 185.864 276.084 186.671C274.848 192.741 272.017 199.685 274.937 204.661C276.974 208.102 281.352 209.327 281.946 213.607C282.001 214.011 282.018 214.423 281.999 214.832C281.862 217.73 279.973 220.283 279.147 223.125C278.179 226.476 278.726 229.807 279.731 233.172C281.036 237.563 283.12 242.002 283.625 246.64C284.13 251.279 283.041 255.587 281.757 259.943C280.541 264.072 279.126 268.167 278.652 272.468C277.742 280.644 280.036 290.1 276.1 296.555C275.7 297.336 275.083 297.881 274.379 298.076C271.859 298.42 272.274 292.494 270.259 290.506C270.475 293.947 270.68 297.539 269.733 300.76C268.786 303.98 266.291 306.719 263.681 306.176L262.781 298.447C261.005 300.734 258.868 302.484 256.519 303.574C257.444 295.356 259.67 287.48 263.055 280.451C256.43 284.622 252.567 293.651 249.121 302.143C246.974 307.449 244.748 313.243 245.5 319.169C245.805 321.584 246.6 323.883 246.774 326.312C246.947 328.741 246.274 331.584 244.542 332.506C243.032 333.311 241.269 332.348 240.18 330.737L239.99 330.441C239.885 330.262 239.785 330.076 239.691 329.891C239.502 329.517 239.335 329.126 239.191 328.721C238.72 327.266 238.367 325.75 238.138 324.199L238.022 323.511C236.27 313.457 234.691 303.086 235.975 292.914C236.449 289.17 237.312 285.454 237.207 281.655C237.128 279.513 236.794 277.401 236.217 275.393C234.681 269.764 231.723 264.595 230.04 258.925C230.021 258.886 230.007 258.844 229.997 258.801C229.113 255.8 228.677 252.05 230.313 249.641C231.155 248.395 232.418 247.769 233.471 246.888C236.744 244.101 238.207 238.809 238.812 233.757C239.084 231.481 239.221 229.18 239.222 226.876C243.658 224.811 249.578 221.838 250.231 222.306C251.152 222.953 260.382 221.831 260.755 221.783C263.565 219.663 266.018 216.546 267.217 211.983C267.328 211.577 267.423 211.157 267.512 210.717C263.299 207.744 259.764 203.364 257.266 198.023C254.769 192.682 253.398 186.571 253.295 180.311C253.191 174.052 254.357 167.869 256.676 162.391C258.994 156.914 262.381 152.337 266.491 149.129C270.602 145.92 275.289 144.193 280.076 144.125C284.863 144.056 289.578 145.648 293.742 148.738C297.905 151.828 301.368 156.306 303.777 161.716C306.187 167.126 307.457 173.274 307.458 179.535L307.453 179.501Z" fill="black"/>
<path d="M276.084 185.199C274.842 191.269 272.017 198.212 274.942 203.195C276.979 206.636 281.357 207.854 281.941 212.141C282.41 215.582 280.089 218.418 279.152 221.652C276.921 229.381 282.741 236.978 283.625 245.161C284.588 254.038 279.642 262.125 278.658 270.995C277.747 279.171 280.042 288.62 276.105 295.082C275.708 295.866 275.089 296.413 274.385 296.603C271.864 296.954 272.28 291.029 270.264 289.033C270.48 292.474 270.685 296.066 269.738 299.287C268.791 302.508 266.297 305.24 263.686 304.703L262.787 296.968C261.011 299.255 258.873 301.005 256.524 302.095C257.449 293.879 259.673 286.006 263.055 278.978C256.43 283.149 252.573 292.178 249.126 300.663C246.974 305.969 244.753 311.771 245.5 317.696C245.805 320.111 246.6 322.403 246.774 324.839C246.947 327.276 246.274 330.104 244.542 331.033C242.964 331.893 241.053 330.751 239.99 328.969C238.928 327.186 238.517 324.915 238.133 322.72C236.333 312.452 234.655 301.854 235.965 291.462C236.438 287.712 237.301 283.995 237.196 280.203C236.97 271.897 232.281 265.063 229.997 257.335C229.108 254.327 228.677 250.584 230.313 248.175C231.155 246.929 232.418 246.303 233.471 245.422C236.738 242.628 238.207 237.343 238.806 232.292C239.453 226.831 239.333 221.262 238.454 215.858C237.133 207.771 234.102 199.871 234.855 191.661C235.591 183.582 239.822 176.92 242.669 169.687C246.331 160.325 247.737 149.731 246.7 139.303C246.21 134.452 245.353 128.836 247.868 125.209C250.889 120.86 256.735 122.498 260.182 118.727C261.866 116.889 262.681 114.061 263.928 111.707C265.487 108.879 267.665 106.738 270.175 105.565C272.685 104.393 275.408 104.245 277.984 105.142C280.352 106.029 282.478 107.791 284.825 108.789C288.13 110.165 291.666 110.014 295.139 110.558C298.612 111.101 302.248 112.622 304.237 116.345C305.29 118.327 305.769 120.743 306.737 122.794C308.816 127.198 312.778 129.318 315.777 132.697C318.35 135.696 320.19 139.62 321.067 143.978C321.945 148.336 321.822 152.936 320.713 157.203C318.924 163.72 314.783 169.487 315.135 176.397C315.278 179.239 316.188 182.026 315.904 184.841C315.072 192.679 306.374 194.242 303.369 201.11C303.611 189.851 301.959 178.255 297.26 168.82C293.502 161.25 282.078 148.037 274.227 151.718C273.406 152.114 272.668 152.756 272.073 153.593C271.477 154.429 271.039 155.437 270.796 156.536C270.017 160.396 272.295 162.041 273.758 165.09C275.159 168.066 276.087 171.38 276.486 174.835C276.886 178.29 276.749 181.814 276.084 185.199Z" fill="#3F3D56"/>
<g opacity="0.2">
<path opacity="0.2" d="M239.191 224.205C239.256 220.669 239.004 217.135 238.438 213.676C237.317 206.794 234.97 200.057 234.755 193.147C234.449 200.841 237.201 208.288 238.438 215.858C238.887 218.604 239.139 221.398 239.191 224.205V224.205Z" fill="black"/>
<path opacity="0.2" d="M261.608 280.052C262.066 278.958 262.539 277.87 263.05 276.811C256.43 280.981 252.567 290.01 249.121 298.502C247.126 303.409 245.079 308.749 245.384 314.214C245.637 309.527 247.4 304.958 249.121 300.711C252.309 292.859 255.856 284.56 261.608 280.052Z" fill="black"/>
<path opacity="0.2" d="M246.742 324.557C246.542 326.415 245.837 328.177 244.542 328.872C242.964 329.726 241.053 328.59 239.996 326.808C238.938 325.025 238.517 322.761 238.133 320.559C236.849 313.223 235.628 305.708 235.502 298.227C235.375 306.437 236.712 314.709 238.133 322.775C238.517 324.97 238.933 327.248 239.996 329.024C241.059 330.799 242.948 331.941 244.542 331.088C246.274 330.159 246.952 327.331 246.779 324.894C246.742 324.777 246.742 324.667 246.742 324.557Z" fill="black"/>
<path opacity="0.2" d="M276.695 177.808C276.633 179.574 276.429 181.328 276.084 183.038C275.169 187.532 273.38 192.514 273.7 196.802C273.953 193.058 275.321 188.984 276.084 185.233C276.572 182.812 276.778 180.309 276.695 177.808Z" fill="black"/>
<path opacity="0.2" d="M247.01 144.967C247.054 142.343 246.945 139.718 246.684 137.115C246.489 135.202 246.242 133.165 246.158 131.176C246.037 133.825 246.405 136.681 246.684 139.331C246.872 141.2 246.981 143.082 247.01 144.967V144.967Z" fill="black"/>
<path opacity="0.2" d="M281.946 212.21C281.946 212.148 281.946 212.1 281.91 212.038C281.51 214.598 279.899 216.938 279.157 219.512C278.717 221.048 278.558 222.698 278.694 224.329C278.758 223.439 278.914 222.564 279.157 221.728C280.089 218.487 282.41 215.624 281.946 212.21Z" fill="black"/>
<path opacity="0.2" d="M237.196 278.042C236.965 269.736 232.281 262.902 229.992 255.174C229.627 253.957 229.379 252.686 229.255 251.389C229.129 253.438 229.381 255.496 229.992 257.39C232.244 265.015 236.802 271.725 237.17 279.846C237.196 279.247 237.212 278.641 237.196 278.042Z" fill="black"/>
<path opacity="0.2" d="M297.26 166.659C293.497 159.089 282.078 145.876 274.227 149.557C273.406 149.953 272.667 150.594 272.07 151.431C271.473 152.268 271.035 153.276 270.791 154.375C270.605 155.217 270.585 156.107 270.733 156.962C270.733 156.838 270.764 156.715 270.791 156.591C271.034 155.492 271.472 154.483 272.069 153.646C272.666 152.809 273.405 152.168 274.227 151.773C282.078 148.092 293.497 161.325 297.26 168.875C301.512 177.422 303.264 187.738 303.38 197.972C303.49 186.995 301.811 175.798 297.26 166.659Z" fill="black"/>
<path opacity="0.2" d="M315.888 182.659C315.062 190.477 306.416 192.053 303.38 198.88C303.38 199.63 303.38 200.387 303.38 201.137C306.379 194.255 315.083 192.707 315.909 184.868C315.983 184.098 315.983 183.319 315.909 182.549C315.905 182.587 315.898 182.624 315.888 182.659V182.659Z" fill="black"/>
<path opacity="0.2" d="M320.698 155.015C318.909 161.539 314.767 167.299 315.12 174.215C315.12 174.312 315.12 174.415 315.12 174.518C315.509 168.428 319.051 163.142 320.671 157.231C321.401 154.53 321.714 151.667 321.592 148.807C321.535 150.924 321.233 153.016 320.698 155.015V155.015Z" fill="black"/>
<path opacity="0.2" d="M276.105 292.935C275.708 293.72 275.09 294.269 274.385 294.463C271.864 294.814 272.28 288.888 270.264 286.893C270.317 287.677 270.364 288.469 270.396 289.26C272.269 291.38 271.922 297.016 274.385 296.672C274.734 296.579 275.066 296.396 275.361 296.135C275.656 295.874 275.909 295.54 276.105 295.151C278.352 291.462 278.568 286.803 278.51 281.965C278.452 285.998 278.005 289.845 276.105 292.935Z" fill="black"/>
<path opacity="0.2" d="M269.733 297.147C268.775 300.374 266.291 303.106 263.676 302.563C263.378 299.989 263.079 297.41 262.781 294.827C261.083 297.008 259.056 298.702 256.83 299.803C256.714 300.588 256.603 301.379 256.514 302.17C258.865 301.081 261.004 299.331 262.781 297.043C263.079 299.626 263.378 302.205 263.676 304.779C266.307 305.315 268.775 302.59 269.733 299.363C270.321 297.114 270.555 294.734 270.422 292.364C270.395 293.997 270.162 295.613 269.733 297.147V297.147Z" fill="black"/>
<path opacity="0.2" d="M278.658 268.848C278.455 270.927 278.379 273.023 278.431 275.118C278.44 273.762 278.515 272.408 278.658 271.064C279.6 262.606 284.13 254.864 283.72 246.475C283.357 254.059 279.515 261.141 278.658 268.848Z" fill="black"/>
</g>
<path d="M435.131 386.191C435.131 386.191 431.558 407.959 447.46 410.54L448.444 408.124C448.444 408.124 436.131 392.984 435.131 386.191Z" fill="#6C63FF"/>
<path d="M453.517 407.98L449.833 409.005L449.465 409.108C449.465 409.108 439.598 398.634 439.725 375.249C441.045 378.695 442.623 381.961 444.434 385.001C448.334 391.766 452.78 400.802 453.517 407.98Z" fill="#6C63FF"/>
<path d="M454.77 410.223C454.478 410.469 454.148 410.627 453.804 410.686C453.46 410.744 453.11 410.701 452.78 410.56C443.308 407.656 446.492 367.204 446.492 367.204C447.018 367.528 447.592 372.71 449.776 379.316C453.607 391.009 457.816 407.291 454.77 410.223Z" fill="#6C63FF"/>
<path d="M475.829 386.191C475.829 386.191 476.445 407.959 460.542 410.54L459.558 408.124C459.558 408.124 474.845 392.984 475.829 386.191Z" fill="#6C63FF"/>
<path d="M471.272 375.249C471.388 398.648 458.569 409.108 458.569 409.108L458.201 409.005L454.517 407.98C455.248 400.802 459.706 391.766 463.61 385.001C465.819 381.317 468.396 378.037 471.272 375.249V375.249Z" fill="#6C63FF"/>
<path d="M458.143 408.103C457.574 409.011 456.854 409.736 456.038 410.223C455.789 410.369 455.53 410.482 455.264 410.56C452.928 411.248 452.107 409.074 452.244 405.33C452.465 398.661 455.669 387.1 458.558 378.491C460.632 372.256 464.015 367.535 464.52 367.225C464.489 367.191 464.347 398.703 458.143 408.103Z" fill="#6C63FF"/>
<path d="M455.49 353C455.49 353 444.887 402.178 454.012 409.597C463.137 417.016 457.832 357.356 455.49 353Z" fill="#6C63FF"/>
<path opacity="0.1" d="M435.131 386.191C435.131 386.191 431.558 407.959 447.46 410.54L448.444 408.124C448.444 408.124 436.131 392.984 435.131 386.191Z" fill="black"/>
<path opacity="0.1" d="M453.517 407.98L449.833 409.005L449.465 409.108C449.465 409.108 439.598 398.634 439.725 375.249C441.045 378.695 442.623 381.961 444.434 385.001C448.334 391.766 452.78 400.802 453.517 407.98Z" fill="black"/>
<path opacity="0.1" d="M454.77 410.223C454.478 410.469 454.148 410.627 453.804 410.686C453.46 410.744 453.11 410.701 452.78 410.56C443.308 407.656 446.492 367.204 446.492 367.204C447.018 367.528 447.592 372.71 449.776 379.316C453.607 391.009 457.816 407.291 454.77 410.223Z" fill="black"/>
<path opacity="0.1" d="M475.829 386.191C475.829 386.191 476.445 407.959 460.542 410.54L459.558 408.124C459.558 408.124 474.845 392.984 475.829 386.191Z" fill="black"/>
<path opacity="0.1" d="M471.272 375.249C471.388 398.648 458.569 409.108 458.569 409.108L458.201 409.005L454.517 407.98C455.248 400.802 459.706 391.766 463.61 385.001C465.819 381.317 468.396 378.037 471.272 375.249V375.249Z" fill="black"/>
<path opacity="0.1" d="M458.143 408.103C457.574 409.011 456.854 409.736 456.038 410.223C455.789 410.369 455.53 410.482 455.264 410.56C452.928 411.248 452.107 409.074 452.244 405.33C452.465 398.661 455.669 387.1 458.558 378.491C460.632 372.256 464.015 367.535 464.52 367.225C464.489 367.191 464.347 398.703 458.143 408.103Z" fill="black"/>
<path opacity="0.1" d="M455.49 353C455.49 353 444.887 402.178 454.012 409.597C463.137 417.016 457.832 357.356 455.49 353Z" fill="black"/>
<path d="M435.131 386.191C435.131 386.191 433.026 407.959 448.939 410.54L449.923 408.124C449.923 408.124 436.131 392.984 435.131 386.191Z" fill="#6C63FF"/>
<path d="M454.996 407.98L451.312 409.005L450.939 409.108C450.939 409.108 439.593 398.634 439.719 375.249C439.719 375.249 442.624 379.323 445.908 385.001C449.812 391.766 454.259 400.802 454.996 407.98Z" fill="#6C63FF"/>
<path opacity="0.1" d="M454.996 407.98L451.312 409.005C447.802 404.979 446.413 394.47 445.908 385.001C449.812 391.766 454.259 400.802 454.996 407.98Z" fill="black"/>
<path d="M456.248 410.223C455.957 410.469 455.627 410.627 455.283 410.686C454.939 410.744 454.589 410.701 454.259 410.56C444.761 407.656 446.492 367.204 446.492 367.204C447.018 367.528 449.071 372.71 451.228 379.316C455.085 391.009 459.295 407.291 456.248 410.223Z" fill="#6C63FF"/>
<path d="M475.829 386.191C475.829 386.191 477.934 407.959 462.021 410.54L461.037 408.124C461.037 408.124 474.845 392.984 475.829 386.191Z" fill="#6C63FF"/>
<path d="M471.272 375.249C471.388 398.648 460.048 409.108 460.048 409.108L459.679 409.005L455.996 407.98C456.732 400.802 461.184 391.766 465.089 385.001C468.362 379.31 471.272 375.249 471.272 375.249Z" fill="#6C63FF"/>
<path opacity="0.1" d="M465.073 385.001C464.599 393.837 463.363 403.582 460.363 408.103C460.154 408.427 459.925 408.729 459.679 409.005L455.996 407.98C456.706 400.802 461.168 391.766 465.073 385.001Z" fill="black"/>
<path d="M459.621 408.103C459.052 409.011 458.332 409.736 457.516 410.223C457.266 410.369 457.005 410.482 456.738 410.56C454.401 411.248 453.58 409.074 453.717 405.33C453.943 398.661 457.143 387.1 460.032 378.491C462.105 372.256 464.01 367.535 464.515 367.225C464.489 367.191 465.825 398.703 459.621 408.103Z" fill="#6C63FF"/>
<path opacity="0.1" d="M456.248 410.223C455.711 410.219 455.188 410.001 454.748 409.597C450.281 405.956 450.191 392.296 451.254 379.316C455.085 391.009 459.295 407.291 456.248 410.223Z" fill="black"/>
<path opacity="0.1" d="M459.621 408.103C459.095 409.556 458.416 410.326 457.516 410.223C457.061 410.144 456.625 409.93 456.243 409.597C455.082 408.552 454.199 407.061 453.717 405.33C453.943 398.661 457.143 387.1 460.032 378.491C461.032 390.458 461.374 403.183 459.621 408.103Z" fill="black"/>
<path d="M455.49 353C455.49 353 446.366 402.178 455.49 409.597C464.615 417.016 457.832 357.356 455.49 353Z" fill="#6C63FF"/>
<path d="M472.998 407.174H435.025V415.398H440.819L440.961 416.369L443.282 432.328H465.357L467.678 416.369L467.82 415.398H472.998V407.174Z" fill="#D4DFEC"/>
<path opacity="0.1" d="M472.982 407.174H435.01V415.398H440.803L440.946 416.369L443.266 432.328H465.341L467.662 416.369L467.804 415.398H472.982V407.174Z" fill="black"/>
<path d="M469.793 412.012L469.156 416.369L466.836 432.328H444.761L442.44 416.369L441.803 412.012H469.793Z" fill="#D4DFEC"/>
<path opacity="0.1" d="M469.793 412.012L469.156 416.369H442.44L441.803 412.012H469.793Z" fill="black"/>
<path d="M474.477 407.174H436.504V415.398H474.477V407.174Z" fill="#D4DFEC"/>
<path d="M150.301 354.535C149.76 355.505 149.328 356.571 149.017 357.7C148.938 357.976 148.859 358.292 148.78 358.595C148.638 358.504 148.487 358.437 148.332 358.396C147.676 358.177 146.997 358.1 146.322 358.168C146.322 357.824 146.349 357.48 146.359 357.088C146.443 353.193 146.091 347.777 143.254 350.068C140.534 352.284 142.476 355.959 144.233 358.327C144.386 358.533 144.533 358.719 144.68 358.905C143.102 360.412 142.776 363.874 142.507 367.5C142.239 371.127 139.876 375.07 138.329 377.341C138.176 377.569 138.029 377.775 137.887 377.968C137.258 377.305 136.527 376.826 135.745 376.563C134.963 376.299 134.147 376.257 133.351 376.44L133.14 375.435C131.877 369.469 129.252 359.132 125.905 356.854L126.347 356.124C127.768 353.688 129.367 350.075 127.005 349.153C124.642 348.231 124.426 352.284 124.558 355.347C124.558 355.725 124.6 356.09 124.626 356.427C124.153 356.456 123.689 356.611 123.263 356.882C122.837 357.153 122.457 357.534 122.147 358.003C122.037 357.824 121.916 357.638 121.784 357.439C119.869 354.473 116.348 349.786 115.286 353.31C114.296 356.613 117.39 360.88 119.569 363.399L119.706 363.55C118.243 371.313 124.621 377.63 128.062 380.397C128.215 380.528 128.362 380.645 128.504 380.755C123.768 388.057 120.837 401.751 120.837 401.751L134.13 404.91C134.13 404.91 142.933 394.98 141.807 385.641H141.897C150.69 383.336 152.69 371.072 151.321 363.791L151.474 363.708C153.075 362.85 154.479 361.463 155.547 359.682C157.989 355.223 152.826 350.165 150.301 354.535Z" fill="#6C63FF"/>
<path opacity="0.1" d="M150.301 354.535C149.76 355.505 149.328 356.571 149.017 357.7C148.938 357.976 148.859 358.292 148.78 358.595C148.638 358.504 148.487 358.437 148.332 358.396C147.676 358.177 146.997 358.1 146.322 358.168C146.322 357.824 146.349 357.48 146.359 357.088C146.443 353.193 146.091 347.777 143.254 350.068C140.534 352.284 142.476 355.959 144.233 358.327C144.386 358.533 144.533 358.719 144.68 358.905C143.102 360.412 142.776 363.874 142.507 367.5C142.239 371.127 139.876 375.07 138.329 377.341C138.176 377.569 138.029 377.775 137.887 377.968C137.258 377.305 136.527 376.826 135.745 376.563C134.963 376.299 134.147 376.257 133.351 376.44L133.14 375.435C131.877 369.469 129.252 359.132 125.905 356.854L126.347 356.124C127.768 353.688 129.367 350.075 127.005 349.153C124.642 348.231 124.426 352.284 124.558 355.347C124.558 355.725 124.6 356.09 124.626 356.427C124.153 356.456 123.689 356.611 123.263 356.882C122.837 357.153 122.457 357.534 122.147 358.003C122.037 357.824 121.916 357.638 121.784 357.439C119.869 354.473 116.348 349.786 115.286 353.31C114.296 356.613 117.39 360.88 119.569 363.399L119.706 363.55C118.243 371.313 124.621 377.63 128.062 380.397C128.215 380.528 128.362 380.645 128.504 380.755C123.768 388.057 120.837 401.751 120.837 401.751L134.13 404.91C134.13 404.91 142.933 394.98 141.807 385.641H141.897C150.69 383.336 152.69 371.072 151.321 363.791L151.474 363.708C153.075 362.85 154.479 361.463 155.547 359.682C157.989 355.223 152.826 350.165 150.301 354.535Z" fill="black"/>
<path d="M123.884 359.559L122.332 365.504C122.332 365.504 121.469 364.706 120.379 363.44C118.201 360.949 115.117 356.654 116.096 353.351C117.148 349.8 120.679 354.487 122.6 357.48C123.368 358.664 123.884 359.559 123.884 359.559Z" fill="#6C63FF"/>
<path d="M127.157 356.173C126.685 356.982 126.181 357.758 125.647 358.499C125.513 357.464 125.42 356.421 125.368 355.374C125.242 352.333 125.484 348.293 127.815 349.181C130.146 350.068 128.578 353.736 127.157 356.173Z" fill="#6C63FF"/>
<path d="M147.175 357.109C147.122 359.063 146.98 360.625 146.98 360.625C146.297 359.927 145.65 359.171 145.044 358.361C143.286 355.98 141.36 352.305 144.07 350.103C146.906 347.797 147.254 353.213 147.175 357.109Z" fill="#6C63FF"/>
<path d="M156.342 359.669C155.273 361.449 153.87 362.836 152.269 363.695C151.824 363.949 151.367 364.166 150.9 364.341L149.074 360.983C149.268 359.874 149.521 358.784 149.832 357.721C150.142 356.591 150.574 355.524 151.116 354.555C153.642 350.165 158.799 355.223 156.342 359.669Z" fill="#6C63FF"/>
<path opacity="0.1" d="M122.6 357.466C123.368 358.65 123.884 359.531 123.884 359.531L122.332 365.477C122.332 365.477 121.469 364.679 120.379 363.412C120.622 361.509 121.222 359.714 122.126 358.189C122.284 357.941 122.442 357.7 122.6 357.466Z" fill="black"/>
<path opacity="0.1" d="M127.157 356.173C126.685 356.982 126.181 357.758 125.647 358.499C125.513 357.464 125.42 356.421 125.368 355.374C126.014 355.389 126.639 355.668 127.157 356.173V356.173Z" fill="black"/>
<path d="M134.787 379.75L130.93 381.973C130.225 381.512 129.538 381.005 128.873 380.452C124.815 377.19 116.659 368.98 122.126 359.297C127.594 349.614 132.156 366.977 133.951 375.47C134.498 378.009 134.787 379.75 134.787 379.75Z" fill="#6C63FF"/>
<path opacity="0.1" d="M145.044 358.361C145.605 357.603 146.368 357.154 147.175 357.109C147.122 359.063 146.98 360.625 146.98 360.625C146.297 359.927 145.65 359.171 145.044 358.361V358.361Z" fill="black"/>
<path opacity="0.1" d="M152.269 363.695C151.824 363.949 151.367 364.166 150.9 364.341L149.074 360.983C149.268 359.874 149.521 358.784 149.832 357.721C151.011 358.623 151.879 360.866 152.269 363.695Z" fill="black"/>
<path d="M142.686 385.627C142.476 385.682 142.255 385.737 142.039 385.779C129.099 388.352 137.771 379.22 137.771 379.22C137.771 379.22 138.355 378.532 139.145 377.376C140.723 375.118 143.054 371.182 143.323 367.535C143.728 362.029 144.196 356.902 149.148 358.416C154.005 359.903 154.931 382.42 142.686 385.627Z" fill="#6C63FF"/>
<path d="M142.449 427.758H117.727V436.257H142.449V427.758Z" fill="#D4DFEC"/>
<path d="M146.096 400.127H113.796V429.795H146.096V400.127Z" fill="#D4DFEC"/>
<path opacity="0.1" d="M142.449 427.758H117.727V436.257H142.449V427.758Z" fill="black"/>
<path opacity="0.1" d="M146.096 400.127H113.796V429.795H146.096V400.127Z" fill="black"/>
<path d="M144.07 427.758H119.348V436.257H144.07V427.758Z" fill="#D4DFEC"/>
<path opacity="0.1" d="M133.951 375.469C134.477 378.009 134.787 379.75 134.787 379.75L130.93 381.973C130.225 381.512 129.538 381.004 128.873 380.452C130.383 377.933 132.088 376.054 133.951 375.469Z" fill="black"/>
<path opacity="0.1" d="M142.686 385.627C142.476 385.682 142.255 385.737 142.039 385.779C129.099 388.352 137.771 379.22 137.771 379.22C137.771 379.22 138.355 378.532 139.145 377.376C141.56 379.901 142.549 382.751 142.686 385.627Z" fill="black"/>
<path d="M121.653 401.807C121.653 401.807 128.899 367.893 139.055 378.339C149.211 388.786 134.924 404.91 134.924 404.91L121.653 401.807Z" fill="#6C63FF"/>
<path opacity="0.1" d="M125.31 365.677C125.758 365.677 126.121 365.202 126.121 364.617C126.121 364.031 125.758 363.557 125.31 363.557C124.863 363.557 124.5 364.031 124.5 364.617C124.5 365.202 124.863 365.677 125.31 365.677Z" fill="black"/>
<path opacity="0.1" d="M125.242 370.632C125.689 370.632 126.052 370.157 126.052 369.572C126.052 368.986 125.689 368.512 125.242 368.512C124.794 368.512 124.431 368.986 124.431 369.572C124.431 370.157 124.794 370.632 125.242 370.632Z" fill="black"/>
<path opacity="0.1" d="M148.806 366.647C149.254 366.647 149.616 366.172 149.616 365.587C149.616 365.002 149.254 364.527 148.806 364.527C148.359 364.527 147.996 365.002 147.996 365.587C147.996 366.172 148.359 366.647 148.806 366.647Z" fill="black"/>
<path opacity="0.1" d="M129.846 392.062C130.294 392.062 130.657 391.587 130.657 391.002C130.657 390.417 130.294 389.942 129.846 389.942C129.399 389.942 129.036 390.417 129.036 391.002C129.036 391.587 129.399 392.062 129.846 392.062Z" fill="black"/>
<path opacity="0.1" d="M147.117 374.885C147.564 374.885 147.927 374.41 147.927 373.825C147.927 373.239 147.564 372.765 147.117 372.765C146.669 372.765 146.307 373.239 146.307 373.825C146.307 374.41 146.669 374.885 147.117 374.885Z" fill="black"/>
<path opacity="0.1" d="M138.718 385.868C139.166 385.868 139.529 385.394 139.529 384.808C139.529 384.223 139.166 383.748 138.718 383.748C138.271 383.748 137.908 384.223 137.908 384.808C137.908 385.394 138.271 385.868 138.718 385.868Z" fill="black"/>
<path opacity="0.1" d="M128.089 367.796C128.536 367.796 128.899 367.322 128.899 366.736C128.899 366.151 128.536 365.677 128.089 365.677C127.641 365.677 127.278 366.151 127.278 366.736C127.278 367.322 127.641 367.796 128.089 367.796Z" fill="black"/>
<path opacity="0.1" d="M146.575 369.833C147.022 369.833 147.385 369.359 147.385 368.773C147.385 368.188 147.022 367.714 146.575 367.714C146.127 367.714 145.765 368.188 145.765 368.773C145.765 369.359 146.127 369.833 146.575 369.833Z" fill="black"/>
<path opacity="0.1" d="M143.796 378.071C144.244 378.071 144.607 377.596 144.607 377.011C144.607 376.426 144.244 375.951 143.796 375.951C143.349 375.951 142.986 376.426 142.986 377.011C142.986 377.596 143.349 378.071 143.796 378.071Z" fill="black"/>
<path opacity="0.1" d="M135.266 391.27C135.714 391.27 136.077 390.796 136.077 390.211C136.077 389.625 135.714 389.151 135.266 389.151C134.819 389.151 134.456 389.625 134.456 390.211C134.456 390.796 134.819 391.27 135.266 391.27Z" fill="black"/>
<path opacity="0.1" d="M133.503 386.04C133.951 386.04 134.314 385.566 134.314 384.98C134.314 384.395 133.951 383.92 133.503 383.92C133.056 383.92 132.693 384.395 132.693 384.98C132.693 385.566 133.056 386.04 133.503 386.04Z" fill="black"/>
<path opacity="0.1" d="M129.304 374.265C129.752 374.265 130.115 373.791 130.115 373.205C130.115 372.62 129.752 372.146 129.304 372.146C128.857 372.146 128.494 372.62 128.494 373.205C128.494 373.791 128.857 374.265 129.304 374.265Z" fill="black"/>
<path opacity="0.1" d="M144.07 427.758H119.348V430.862H144.07V427.758Z" fill="black"/>
<path d="M147.722 400.127H115.422V429.795H147.722V400.127Z" fill="#D4DFEC"/>
<path opacity="0.1" d="M136.35 396.053C136.798 396.053 137.161 395.579 137.161 394.993C137.161 394.408 136.798 393.934 136.35 393.934C135.903 393.934 135.54 394.408 135.54 394.993C135.54 395.579 135.903 396.053 136.35 396.053Z" fill="black"/>
<path opacity="0.1" d="M131.472 397.381C131.92 397.381 132.283 396.907 132.283 396.322C132.283 395.736 131.92 395.262 131.472 395.262C131.025 395.262 130.662 395.736 130.662 396.322C130.662 396.907 131.025 397.381 131.472 397.381Z" fill="black"/>
</g>
<defs>
<linearGradient id="paint0_linear" x1="291.997" y1="425.556" x2="291.997" y2="-1.03049e-05" gradientUnits="userSpaceOnUse">
<stop offset="0.2" stop-color="#808080" stop-opacity="0.4"/>
<stop offset="0.46" stop-color="#808080" stop-opacity="0.5"/>
<stop offset="1" stop-opacity="0.6"/>
</linearGradient>
<linearGradient id="paint1_linear" x1="290.603" y1="487.101" x2="290.603" y2="101.419" gradientUnits="userSpaceOnUse">
<stop stop-color="#808080" stop-opacity="0.25"/>
<stop offset="0.54" stop-color="#808080" stop-opacity="0.12"/>
<stop offset="1" stop-color="#808080" stop-opacity="0.1"/>
</linearGradient>
<clipPath id="clip0">
<rect width="584" height="515" fill="white"/>
</clipPath>
</defs>
</svg>
